<svg width="149" height="64" viewBox="0 0 149 64" fill="none" xmlns="http://www.w3.org/2000/svg">
<path d="M48.7619 57.9048L57.9048 48.7619L55.7714 46.6286L50.2857 52.1143V39.6191H47.2381V52.1143L41.7524 46.6286L39.6191 48.7619L48.7619 57.9048ZM24.381 12.1905H36.5714V6.09524H24.381V12.1905ZM48.7619 64C44.546 64 40.9519 62.5138 37.9794 59.5413C35.007 56.5689 33.5218 52.9757 33.5238 48.7619C33.5238 44.546 35.01 40.9519 37.9825 37.9794C40.9549 35.007 44.5481 33.5218 48.7619 33.5238C52.9778 33.5238 56.5719 35.01 59.5444 37.9825C62.5168 40.9549 64.002 44.5481 64 48.7619C64 52.9778 62.5138 56.5719 59.5413 59.5444C56.5689 62.5168 52.9757 64.002 48.7619 64ZM6.09524 57.9048C4.41905 57.9048 2.98362 57.3074 1.78896 56.1128C0.59429 54.9181 -0.00202657 53.4837 5.17423e-06 51.8095V18.2857C5.17423e-06 16.6095 0.597339 15.1741 1.79201 13.9794C2.98667 12.7848 4.42108 12.1884 6.09524 12.1905H18.2857V6.09524C18.2857 4.41905 18.8831 2.98362 20.0777 1.78896C21.2724 0.59429 22.7068 -0.00202657 24.381 5.17423e-06H36.5714C38.2476 5.17423e-06 39.6831 0.597339 40.8777 1.79201C42.0724 2.98667 42.6687 4.42108 42.6667 6.09524V12.1905H54.8571C56.5333 12.1905 57.9688 12.7878 59.1634 13.9825C60.3581 15.1771 60.9544 16.6116 60.9524 18.2857V31.3143C59.1746 30.0444 57.2444 29.0794 55.1619 28.4191C53.0794 27.7587 50.946 27.4286 48.7619 27.4286C42.8698 27.4286 37.8413 29.5111 33.6762 33.6762C29.5111 37.8413 27.4286 42.8698 27.4286 48.7619C27.4286 50.3365 27.5942 51.8989 27.9253 53.4491C28.2565 54.9994 28.7766 56.4846 29.4857 57.9048H6.09524Z" fill="white"/>
<path d="M88.328 14.576C88.328 15.552 88.104 16.448 87.656 17.264C87.208 18.064 86.52 18.712 85.592 19.208C84.664 19.704 83.512 19.952 82.136 19.952H79.592V26H75.488V9.152H82.136C83.48 9.152 84.616 9.384 85.544 9.848C86.472 10.312 87.168 10.952 87.632 11.768C88.096 12.584 88.328 13.52 88.328 14.576ZM81.824 16.688C82.608 16.688 83.192 16.504 83.576 16.136C83.96 15.768 84.152 15.248 84.152 14.576C84.152 13.904 83.96 13.384 83.576 13.016C83.192 12.648 82.608 12.464 81.824 12.464H79.592V16.688H81.824ZM94.5686 14.84C95.0486 14.104 95.6486 13.528 96.3686 13.112C97.0886 12.68 97.8886 12.464 98.7686 12.464V16.808H97.6406C96.6166 16.808 95.8486 17.032 95.3366 17.48C94.8246 17.912 94.5686 18.68 94.5686 19.784V26H90.4646V12.608H94.5686V14.84ZM106.826 26.192C105.514 26.192 104.33 25.912 103.274 25.352C102.234 24.792 101.41 23.992 100.802 22.952C100.21 21.912 99.9142 20.696 99.9142 19.304C99.9142 17.928 100.218 16.72 100.826 15.68C101.434 14.624 102.266 13.816 103.322 13.256C104.378 12.696 105.562 12.416 106.874 12.416C108.186 12.416 109.37 12.696 110.426 13.256C111.482 13.816 112.314 14.624 112.922 15.68C113.53 16.72 113.834 17.928 113.834 19.304C113.834 20.68 113.522 21.896 112.898 22.952C112.29 23.992 111.45 24.792 110.378 25.352C109.322 25.912 108.138 26.192 106.826 26.192ZM106.826 22.64C107.61 22.64 108.274 22.352 108.818 21.776C109.378 21.2 109.658 20.376 109.658 19.304C109.658 18.232 109.386 17.408 108.842 16.832C108.314 16.256 107.658 15.968 106.874 15.968C106.074 15.968 105.41 16.256 104.882 16.832C104.354 17.392 104.09 18.216 104.09 19.304C104.09 20.376 104.346 21.2 104.858 21.776C105.386 22.352 106.042 22.64 106.826 22.64Z" fill="white"/>
<path d="M85.616 37.32V39.552H78.536V44.472H84.056V46.704H78.536V54H75.8V37.32H85.616ZM89.5436 39.024C89.0476 39.024 88.6316 38.856 88.2956 38.52C87.9596 38.184 87.7916 37.768 87.7916 37.272C87.7916 36.776 87.9596 36.36 88.2956 36.024C88.6316 35.688 89.0476 35.52 89.5436 35.52C90.0236 35.52 90.4316 35.688 90.7676 36.024C91.1036 36.36 91.2716 36.776 91.2716 37.272C91.2716 37.768 91.1036 38.184 90.7676 38.52C90.4316 38.856 90.0236 39.024 89.5436 39.024ZM90.8876 40.776V54H88.1516V40.776H90.8876ZM101.152 40.56C102.192 40.56 103.12 40.776 103.936 41.208C104.768 41.64 105.416 42.28 105.88 43.128C106.344 43.976 106.576 45 106.576 46.2V54H103.864V46.608C103.864 45.424 103.568 44.52 102.976 43.896C102.384 43.256 101.576 42.936 100.552 42.936C99.5277 42.936 98.7117 43.256 98.1037 43.896C97.5117 44.52 97.2157 45.424 97.2157 46.608V54H94.4797V40.776H97.2157V42.288C97.6637 41.744 98.2317 41.32 98.9197 41.016C99.6237 40.712 100.368 40.56 101.152 40.56ZM109.154 47.328C109.154 46 109.426 44.824 109.97 43.8C110.53 42.776 111.282 41.984 112.226 41.424C113.186 40.848 114.25 40.56 115.418 40.56C116.282 40.56 117.13 40.752 117.962 41.136C118.81 41.504 119.482 42 119.978 42.624V36.24H122.738V54H119.978V52.008C119.53 52.648 118.906 53.176 118.106 53.592C117.322 54.008 116.418 54.216 115.394 54.216C114.242 54.216 113.186 53.928 112.226 53.352C111.282 52.76 110.53 51.944 109.97 50.904C109.426 49.848 109.154 48.656 109.154 47.328ZM119.978 47.376C119.978 46.464 119.786 45.672 119.402 45C119.034 44.328 118.546 43.816 117.938 43.464C117.33 43.112 116.674 42.936 115.97 42.936C115.266 42.936 114.61 43.112 114.002 43.464C113.394 43.8 112.898 44.304 112.514 44.976C112.146 45.632 111.962 46.416 111.962 47.328C111.962 48.24 112.146 49.04 112.514 49.728C112.898 50.416 113.394 50.944 114.002 51.312C114.626 51.664 115.282 51.84 115.97 51.84C116.674 51.84 117.33 51.664 117.938 51.312C118.546 50.96 119.034 50.448 119.402 49.776C119.786 49.088 119.978 48.288 119.978 47.376ZM138.451 47.064C138.451 47.56 138.419 48.008 138.355 48.408H128.251C128.331 49.464 128.723 50.312 129.427 50.952C130.131 51.592 130.995 51.912 132.019 51.912C133.491 51.912 134.531 51.296 135.139 50.064H138.091C137.691 51.28 136.963 52.28 135.907 53.064C134.867 53.832 133.571 54.216 132.019 54.216C130.755 54.216 129.619 53.936 128.611 53.376C127.619 52.8 126.835 52 126.259 50.976C125.699 49.936 125.419 48.736 125.419 47.376C125.419 46.016 125.691 44.824 126.235 43.8C126.795 42.76 127.571 41.96 128.563 41.4C129.571 40.84 130.723 40.56 132.019 40.56C133.267 40.56 134.379 40.832 135.355 41.376C136.331 41.92 137.091 42.688 137.635 43.68C138.179 44.656 138.451 45.784 138.451 47.064ZM135.595 46.2C135.579 45.192 135.219 44.384 134.515 43.776C133.811 43.168 132.939 42.864 131.899 42.864C130.955 42.864 130.147 43.168 129.475 43.776C128.803 44.368 128.403 45.176 128.275 46.2H135.595ZM143.88 42.696C144.28 42.024 144.808 41.504 145.464 41.136C146.136 40.752 146.928 40.56 147.84 40.56V43.392H147.144C146.072 43.392 145.256 43.664 144.696 44.208C144.152 44.752 143.88 45.696 143.88 47.04V54H141.144V40.776H143.88V42.696Z" fill="#6E4E4E"/>
</svg>
